<?xml version="1.0" encoding="UTF-8"?>
<svg xmlns="http://www.w3.org/2000/svg" viewBox="0 0 1920 1080" width="1920" height="1080" font-family="Georgia, 'Times New Roman', serif">
  <defs>
    <radialGradient id="bg" cx="50%" cy="50%" r="65%">
      <stop offset="0%" stop-color="#1E2A44"/>
      <stop offset="100%" stop-color="#0F172A"/>
    </radialGradient>
    <pattern id="grid" x="0" y="0" width="80" height="80" patternUnits="userSpaceOnUse">
      <path d="M 80 0 L 0 0 0 80" fill="none" stroke="#1F2D4A" stroke-width="0.5" opacity="0.5"/>
    </pattern>
  </defs>
  <rect width="1920" height="1080" fill="url(#bg)"/>
  <rect width="1920" height="1080" fill="url(#grid)"/>
  <path d="M 60 60 l 40 0 M 60 60 l 0 40" stroke="#CE8E31" stroke-width="2" opacity="0.85"/>
  <path d="M 1860 60 l -40 0 M 1860 60 l 0 40" stroke="#CE8E31" stroke-width="2" opacity="0.85"/>
  <path d="M 60 1020 l 40 0 M 60 1020 l 0 -40" stroke="#CE8E31" stroke-width="2" opacity="0.85"/>
  <path d="M 1860 1020 l -40 0 M 1860 1020 l 0 -40" stroke="#CE8E31" stroke-width="2" opacity="0.85"/>
  <text x="120" y="110" font-size="46" fill="#FFFFFF" font-weight="300">Seven spheres of the captain&#8217;s life</text>
  <text x="120" y="160" font-size="46" fill="#FFFFFF" font-weight="300">orbit his spiritual center</text>
  <text x="120" y="200" font-size="20" fill="#E5B570" letter-spacing="3" font-weight="600">THE FAMILY CAPTAIN &#183; USMC MINISTRIES</text>
  <circle cx="960.0" cy="540.0" r="530" fill="none" stroke="#475569" stroke-width="1.5" opacity="0.55"/>
  <circle cx="960.0" cy="540.0" r="460" fill="none" stroke="#475569" stroke-width="1.5" opacity="0.55"/>
  <circle cx="960.0" cy="540.0" r="390" fill="none" stroke="#475569" stroke-width="1.5" opacity="0.55"/>
  <circle cx="960.0" cy="540.0" r="320" fill="none" stroke="#475569" stroke-width="1.5" opacity="0.55"/>
  <circle cx="960.0" cy="540.0" r="250" fill="none" stroke="#475569" stroke-width="1.5" opacity="0.55"/>
  <circle cx="960.0" cy="540.0" r="180" fill="none" stroke="#475569" stroke-width="1.5" opacity="0.55"/>
  <circle cx="960.0" cy="540.0" r="110" fill="none" stroke="#475569" stroke-width="1.5" opacity="0.55"/>
  <circle cx="960.0" cy="540.0" r="62" fill="#1E293B" opacity="0.7"/>
  <rect x="954.0" y="478.0" width="12" height="124" fill="#CE8E31" rx="2"/>
  <rect x="916.6" y="534.0" width="86.8" height="12" fill="#CE8E31" rx="2"/>
  <circle cx="960.0" cy="430.0" r="14" fill="#1E293B" stroke="#FFFFFF" stroke-width="2.5"/>
  <circle cx="960.0" cy="430.0" r="6" fill="#CE8E31"/>
  <text x="960.0" y="392.0" text-anchor="middle" font-size="28" fill="#FFFFFF" font-weight="500" dominant-baseline="middle">Spiritual</text>
  <text x="960.0" y="408.0" text-anchor="middle" font-size="14" fill="#E5B570" letter-spacing="1.5" font-weight="600" dominant-baseline="middle">RING 1 &#183; RELATIONSHIP WITH GOD</text>
  <circle cx="1115.9" cy="630.0" r="14" fill="#1E293B" stroke="#FFFFFF" stroke-width="2.5"/>
  <circle cx="1115.9" cy="630.0" r="6" fill="#CE8E31"/>
  <text x="1153.9" y="649.0" text-anchor="start" font-size="28" fill="#FFFFFF" font-weight="500" dominant-baseline="middle">Husbanding</text>
  <text x="1153.9" y="665.0" text-anchor="start" font-size="14" fill="#E5B570" letter-spacing="1.5" font-weight="600" dominant-baseline="middle">RING 2 &#183; PURSUE AND LEAD YOUR WIFE</text>
  <circle cx="743.5" cy="665.0" r="14" fill="#1E293B" stroke="#FFFFFF" stroke-width="2.5"/>
  <circle cx="743.5" cy="665.0" r="6" fill="#CE8E31"/>
  <text x="705.5" y="684.0" text-anchor="end" font-size="28" fill="#FFFFFF" font-weight="500" dominant-baseline="middle">Fathering</text>
  <text x="705.5" y="700.0" text-anchor="end" font-size="14" fill="#E5B570" letter-spacing="1.5" font-weight="600" dominant-baseline="middle">RING 3 &#183; BE PRESENT, PATIENT, PURPOSEFUL</text>
  <circle cx="1237.1" cy="380.0" r="14" fill="#1E293B" stroke="#FFFFFF" stroke-width="2.5"/>
  <circle cx="1237.1" cy="380.0" r="6" fill="#CE8E31"/>
  <text x="1275.1" y="361.0" text-anchor="start" font-size="28" fill="#FFFFFF" font-weight="500" dominant-baseline="middle">Vision</text>
  <text x="1275.1" y="377.0" text-anchor="start" font-size="14" fill="#E5B570" letter-spacing="1.5" font-weight="600" dominant-baseline="middle">RING 4 &#183; WHERE YOU'RE LEADING THE FAMILY</text>
  <circle cx="622.3" cy="345.0" r="14" fill="#1E293B" stroke="#FFFFFF" stroke-width="2.5"/>
  <circle cx="622.3" cy="345.0" r="6" fill="#CE8E31"/>
  <text x="584.3" y="326.0" text-anchor="end" font-size="28" fill="#FFFFFF" font-weight="500" dominant-baseline="middle">Sabbath</text>
  <text x="584.3" y="342.0" text-anchor="end" font-size="14" fill="#E5B570" letter-spacing="1.5" font-weight="600" dominant-baseline="middle">RING 5 &#183; THE RHYTHM OF REST</text>
  <circle cx="960.0" cy="1000.0" r="14" fill="#1E293B" stroke="#FFFFFF" stroke-width="2.5"/>
  <circle cx="960.0" cy="1000.0" r="6" fill="#CE8E31"/>
  <text x="960.0" y="1038.0" text-anchor="middle" font-size="28" fill="#FFFFFF" font-weight="500" dominant-baseline="middle">Finance</text>
  <text x="960.0" y="1010.0" text-anchor="middle" font-size="14" fill="#E5B570" letter-spacing="1.5" font-weight="600" dominant-baseline="middle">RING 6 &#183; STEWARDSHIP OF RESOURCES</text>
  <circle cx="1225.0" cy="999.0" r="14" fill="#1E293B" stroke="#FFFFFF" stroke-width="2.5"/>
  <circle cx="1225.0" cy="999.0" r="6" fill="#CE8E31"/>
  <text x="1244.0" y="1037.0" text-anchor="middle" font-size="28" fill="#FFFFFF" font-weight="500" dominant-baseline="middle">Body</text>
  <text x="1244.0" y="1009.0" text-anchor="middle" font-size="14" fill="#E5B570" letter-spacing="1.5" font-weight="600" dominant-baseline="middle">RING 7 &#183; THE PLATFORM EVERY DUTY STANDS ON</text>
  <rect x="1380" y="860" width="460" height="160" fill="none" stroke="#CE8E31" stroke-width="1.5" opacity="0.85"/>
  <path d="M 1380 876 L 1380 860 L 1396 860" stroke="#CE8E31" stroke-width="3" fill="none"/>
  <path d="M 1824 860 L 1840 860 L 1840 876" stroke="#CE8E31" stroke-width="3" fill="none"/>
  <path d="M 1380 1004 L 1380 1020 L 1396 1020" stroke="#CE8E31" stroke-width="3" fill="none"/>
  <path d="M 1824 1020 L 1840 1020 L 1840 1004" stroke="#CE8E31" stroke-width="3" fill="none"/>
  <text x="1404" y="902" font-size="22" fill="#FFFFFF" font-weight="500">Closer to the center =</text>
  <text x="1404" y="932" font-size="22" fill="#FFFFFF" font-weight="500">closer to the captain&#8217;s core.</text>
  <text x="1404" y="970" font-size="16" fill="#F4E8D0" font-weight="400" opacity="0.85">Spiritual is innermost. Body is</text>
  <text x="1404" y="992" font-size="16" fill="#F4E8D0" font-weight="400" opacity="0.85">outermost. Each theme appears once.</text>
</svg>