<svg xmlns="http://www.w3.org/2000/svg" viewBox="0 0 1200 1500" role="img" aria-label="The Family Captain · Armada Theme · 7-week framework">
  <title>The Family Captain — Armada Theme</title>
  <desc>Seven-week journey across Vision, Body, Spiritual, Husbanding, Fathering, Finance, and Sabbath.</desc>

  <!-- ── DEFS: gradients + filters ── -->
  <defs>
    <linearGradient id="parchment" x1="0" y1="0" x2="0" y2="1">
      <stop offset="0%"  stop-color="#F4E8D0"/>
      <stop offset="100%" stop-color="#D9C297"/>
    </linearGradient>
    <linearGradient id="ocean" x1="0" y1="0" x2="0" y2="1">
      <stop offset="0%"  stop-color="#1E293B"/>
      <stop offset="100%" stop-color="#0F172A"/>
    </linearGradient>
    <radialGradient id="centerGlow" cx="50%" cy="50%" r="50%">
      <stop offset="0%"  stop-color="#F4E8D0" stop-opacity="1"/>
      <stop offset="80%" stop-color="#D9C297" stop-opacity="0.6"/>
      <stop offset="100%" stop-color="#D9C297" stop-opacity="0"/>
    </radialGradient>
    <linearGradient id="horizonGlow" x1="0" y1="0" x2="0" y2="1">
      <stop offset="0%"  stop-color="#CE8E31" stop-opacity="0"/>
      <stop offset="60%" stop-color="#CE8E31" stop-opacity="0.55"/>
      <stop offset="100%" stop-color="#CE8E31" stop-opacity="0"/>
    </linearGradient>
    <!-- subtle paper grain via fractal noise (very low opacity) -->
    <filter id="grain">
      <feTurbulence type="fractalNoise" baseFrequency="0.9" numOctaves="2" stitchTiles="stitch"/>
      <feColorMatrix values="0 0 0 0 0.7   0 0 0 0 0.6   0 0 0 0 0.45   0 0 0 0.06 0"/>
      <feComposite operator="in" in2="SourceGraphic"/>
    </filter>
    <!-- ocean wave ripple texture -->
    <filter id="waves">
      <feTurbulence type="turbulence" baseFrequency="0.012 0.05" numOctaves="2" seed="3"/>
      <feColorMatrix values="0 0 0 0 0.05   0 0 0 0 0.12   0 0 0 0 0.22   0 0 0 0.4 0"/>
      <feComposite operator="in" in2="SourceGraphic"/>
    </filter>
  </defs>

  <!-- ── BACKGROUND: parchment top, ocean bottom ── -->
  <rect width="1200" height="780.0" fill="url(#parchment)"/>
  <rect y="780.0" width="1200" height="720.0" fill="url(#ocean)"/>

  <!-- Subtle paper grain on parchment half -->
  <rect width="1200" height="780.0" filter="url(#grain)"/>
  <!-- Subtle wave ripple on ocean half -->
  <rect y="780.0" width="1200" height="720.0" filter="url(#waves)"/>

  <!-- Bronze inner frame -->
  <rect x="30" y="30" width="1140" height="1440" fill="none" stroke="#CE8E31" stroke-width="1.0" opacity="0.9"/>
  <rect x="40" y="40" width="1120" height="1420" fill="none" stroke="#CE8E31" stroke-width="0.4" opacity="0.6"/>

  <!-- Corner brackets -->
  
  <g stroke="#CE8E31" stroke-width="1.4" fill="none" opacity="0.95">
    <!-- Outer L -->
    <path d="M 30,94 L 30,30 L 94,30"/>
    <!-- Mid L -->
    <path d="M 40.24,68.4 L 40.24,40.24 L 68.4,40.24" stroke-width="1.1"/>
    <!-- Inner L -->
    <path d="M 49.2,62.0 L 49.2,49.2 L 62.0,49.2" stroke-width="0.7"/>
    <!-- Diagonal flourish -->
    <line x1="53.04" y1="53.04" x2="84.4" y2="84.4" stroke-width="0.6"/>
    <!-- Small bronze dot at the bend -->
    <circle cx="53.04" cy="53.04" r="2" fill="#CE8E31" stroke="none"/>
  </g>
  
  <g stroke="#CE8E31" stroke-width="1.4" fill="none" opacity="0.95">
    <!-- Outer L -->
    <path d="M 1170,94 L 1170,30 L 1106,30"/>
    <!-- Mid L -->
    <path d="M 1159.76,68.4 L 1159.76,40.24 L 1131.6,40.24" stroke-width="1.1"/>
    <!-- Inner L -->
    <path d="M 1150.8,62.0 L 1150.8,49.2 L 1138.0,49.2" stroke-width="0.7"/>
    <!-- Diagonal flourish -->
    <line x1="1146.96" y1="53.04" x2="1115.6" y2="84.4" stroke-width="0.6"/>
    <!-- Small bronze dot at the bend -->
    <circle cx="1146.96" cy="53.04" r="2" fill="#CE8E31" stroke="none"/>
  </g>
  
  <g stroke="#CE8E31" stroke-width="1.4" fill="none" opacity="0.95">
    <!-- Outer L -->
    <path d="M 30,1406 L 30,1470 L 94,1470"/>
    <!-- Mid L -->
    <path d="M 40.24,1431.6 L 40.24,1459.76 L 68.4,1459.76" stroke-width="1.1"/>
    <!-- Inner L -->
    <path d="M 49.2,1438.0 L 49.2,1450.8 L 62.0,1450.8" stroke-width="0.7"/>
    <!-- Diagonal flourish -->
    <line x1="53.04" y1="1446.96" x2="84.4" y2="1415.6" stroke-width="0.6"/>
    <!-- Small bronze dot at the bend -->
    <circle cx="53.04" cy="1446.96" r="2" fill="#CE8E31" stroke="none"/>
  </g>
  
  <g stroke="#CE8E31" stroke-width="1.4" fill="none" opacity="0.95">
    <!-- Outer L -->
    <path d="M 1170,1406 L 1170,1470 L 1106,1470"/>
    <!-- Mid L -->
    <path d="M 1159.76,1431.6 L 1159.76,1459.76 L 1131.6,1459.76" stroke-width="1.1"/>
    <!-- Inner L -->
    <path d="M 1150.8,1438.0 L 1150.8,1450.8 L 1138.0,1450.8" stroke-width="0.7"/>
    <!-- Diagonal flourish -->
    <line x1="1146.96" y1="1446.96" x2="1115.6" y2="1415.6" stroke-width="0.6"/>
    <!-- Small bronze dot at the bend -->
    <circle cx="1146.96" cy="1446.96" r="2" fill="#CE8E31" stroke="none"/>
  </g>

  <!-- ── TITLE BAND (top) ── -->
  <text x="600.0" y="120" text-anchor="middle" font-family="Georgia, serif" font-size="56" font-weight="700" fill="#1E293B" letter-spacing="6">ARMADA</text>
  <text x="600.0" y="170" text-anchor="middle" font-family="Georgia, serif" font-size="32" font-weight="500" fill="#475569" letter-spacing="4">THEME</text>
  <line x1="510.0" y1="190" x2="690.0" y2="190" stroke="#CE8E31" stroke-width="1.2"/>

  <!-- ── COMPASS RAYS (faint bronze rays from center circle out to themes) ── -->
  <line x1="600.0" y1="546.0" x2="600.0" y2="340.0" stroke="#CE8E31" stroke-width="0.6" opacity="0.45"/>
  <line x1="759.4936224234781" y1="622.8080804208183" x2="920.5509078118922" y2="494.3691812379193" stroke="#CE8E31" stroke-width="0.6" opacity="0.45"/>
  <line x1="798.885294085092" y1="795.3942705270881" x2="999.7204439945476" y2="841.233582922089" stroke="#CE8E31" stroke-width="0.6" opacity="0.45"/>
  <line x1="688.5122827799819" y1="933.7976490520934" x2="777.8923330381989" y2="1119.397235839992" stroke="#CE8E31" stroke-width="0.6" opacity="0.45"/>
  <line x1="511.48771722001817" y1="933.7976490520934" x2="422.1076669618012" y2="1119.397235839992" stroke="#CE8E31" stroke-width="0.6" opacity="0.45"/>
  <line x1="401.114705914908" y1="795.3942705270881" x2="200.27955600545226" y2="841.2335829220888" stroke="#CE8E31" stroke-width="0.6" opacity="0.45"/>
  <line x1="440.5063775765219" y1="622.8080804208184" x2="279.4490921881077" y2="494.3691812379193" stroke="#CE8E31" stroke-width="0.6" opacity="0.45"/>

  <!-- ── ROPE LINE at parchment/ocean transition ── -->
  <line x1="68.0" y1="780.0" x2="92.0" y2="780.0" stroke="#CE8E31" stroke-width="1.4" stroke-linecap="round" opacity="0.55"/>
  <line x1="113.21739130434783" y1="781.566653819255" x2="137.2173913043478" y2="781.566653819255" stroke="#CE8E31" stroke-width="1.4" stroke-linecap="round" opacity="0.55"/>
  <line x1="158.43478260869566" y1="781.9476952617564" x2="182.43478260869566" y2="781.9476952617564" stroke="#CE8E31" stroke-width="1.4" stroke-linecap="round" opacity="0.55"/>
  <line x1="203.65217391304347" y1="780.8547597604677" x2="227.65217391304347" y2="780.8547597604677" stroke="#CE8E31" stroke-width="1.4" stroke-linecap="round" opacity="0.55"/>
  <line x1="248.8695652173913" y1="779.1149591134104" x2="272.8695652173913" y2="779.1149591134104" stroke="#CE8E31" stroke-width="1.4" stroke-linecap="round" opacity="0.55"/>
  <line x1="294.0869565217391" y1="778.0449397646698" x2="318.0869565217391" y2="778.0449397646698" stroke="#CE8E31" stroke-width="1.4" stroke-linecap="round" opacity="0.55"/>
  <line x1="339.30434782608694" y1="778.454471024888" x2="363.30434782608694" y2="778.454471024888" stroke="#CE8E31" stroke-width="1.4" stroke-linecap="round" opacity="0.55"/>
  <line x1="384.5217391304348" y1="780.0336278009687" x2="408.5217391304348" y2="780.0336278009687" stroke="#CE8E31" stroke-width="1.4" stroke-linecap="round" opacity="0.55"/>
  <line x1="429.7391304347826" y1="781.5873357276984" x2="453.7391304347826" y2="781.5873357276984" stroke="#CE8E31" stroke-width="1.4" stroke-linecap="round" opacity="0.55"/>
  <line x1="474.95652173913044" y1="781.9397796216901" x2="498.95652173913044" y2="781.9397796216901" stroke="#CE8E31" stroke-width="1.4" stroke-linecap="round" opacity="0.55"/>
  <line x1="520.1739130434783" y1="780.8242369704835" x2="544.1739130434783" y2="780.8242369704835" stroke="#CE8E31" stroke-width="1.4" stroke-linecap="round" opacity="0.55"/>
  <line x1="565.3913043478261" y1="779.0849282124493" x2="589.3913043478261" y2="779.0849282124493" stroke="#CE8E31" stroke-width="1.4" stroke-linecap="round" opacity="0.55"/>
  <line x1="610.6086956521739" y1="778.038127539867" x2="634.6086956521739" y2="778.038127539867" stroke="#CE8E31" stroke-width="1.4" stroke-linecap="round" opacity="0.55"/>
  <line x1="655.8260869565217" y1="778.476032832162" x2="679.8260869565217" y2="778.476032832162" stroke="#CE8E31" stroke-width="1.4" stroke-linecap="round" opacity="0.55"/>
  <line x1="701.0434782608696" y1="780.0672460944422" x2="725.0434782608696" y2="780.0672460944422" stroke="#CE8E31" stroke-width="1.4" stroke-linecap="round" opacity="0.55"/>
  <line x1="746.2608695652174" y1="781.6075688531032" x2="770.2608695652174" y2="781.6075688531032" stroke="#CE8E31" stroke-width="1.4" stroke-linecap="round" opacity="0.55"/>
  <line x1="791.4782608695652" y1="781.9313155530986" x2="815.4782608695652" y2="781.9313155530986" stroke="#CE8E31" stroke-width="1.4" stroke-linecap="round" opacity="0.55"/>
  <line x1="836.695652173913" y1="780.7934811462612" x2="860.695652173913" y2="780.7934811462612" stroke="#CE8E31" stroke-width="1.4" stroke-linecap="round" opacity="0.55"/>
  <line x1="881.9130434782609" y1="779.0551560272031" x2="905.9130434782609" y2="779.0551560272031" stroke="#CE8E31" stroke-width="1.4" stroke-linecap="round" opacity="0.55"/>
  <line x1="927.1304347826087" y1="778.0318699898368" x2="951.1304347826087" y2="778.0318699898368" stroke="#CE8E31" stroke-width="1.4" stroke-linecap="round" opacity="0.55"/>
  <line x1="972.3478260869565" y1="778.4980255064567" x2="996.3478260869565" y2="778.4980255064567" stroke="#CE8E31" stroke-width="1.4" stroke-linecap="round" opacity="0.55"/>
  <line x1="1017.5652173913043" y1="780.1008453756136" x2="1041.5652173913043" y2="780.1008453756136" stroke="#CE8E31" stroke-width="1.4" stroke-linecap="round" opacity="0.55"/>
  <line x1="1062.7826086956522" y1="781.6273474750142" x2="1086.7826086956522" y2="781.6273474750142" stroke="#CE8E31" stroke-width="1.4" stroke-linecap="round" opacity="0.55"/>
  <line x1="1108.0" y1="781.9223054490043" x2="1132.0" y2="781.9223054490043" stroke="#CE8E31" stroke-width="1.4" stroke-linecap="round" opacity="0.55"/>

  <!-- ── HORIZON GLOW (subtle bronze haze right above the ocean) ── -->
  <rect y="750.0" width="1200" height="40" fill="url(#horizonGlow)" opacity="0.4"/>

  <!-- ── CENTRAL CIRCLE ── -->
  <!-- Outer soft halo -->
  <circle cx="600.0" cy="750.0" r="240" fill="url(#centerGlow)" opacity="0.5"/>
  <!-- Compass-rose star behind the wordmark -->
  <polygon points="600.0,750.0 596.4,716.0 600.0,567.6 603.6,716.0" fill="#CE8E31" opacity="0.16"/>
  <polygon points="600.0,750.0 621.5,723.4 673.9,676.1 626.6,728.5" fill="#CE8E31" opacity="0.09"/>
  <polygon points="600.0,750.0 634.0,746.4 782.4,750.0 634.0,753.6" fill="#CE8E31" opacity="0.16"/>
  <polygon points="600.0,750.0 626.6,771.5 673.9,823.9 621.5,776.6" fill="#CE8E31" opacity="0.09"/>
  <polygon points="600.0,750.0 603.6,784.0 600.0,932.4 596.4,784.0" fill="#CE8E31" opacity="0.16"/>
  <polygon points="600.0,750.0 578.5,776.6 526.1,823.9 573.4,771.5" fill="#CE8E31" opacity="0.09"/>
  <polygon points="600.0,750.0 566.0,753.6 417.6,750.0 566.0,746.4" fill="#CE8E31" opacity="0.16"/>
  <polygon points="600.0,750.0 573.4,728.5 526.1,676.1 578.5,723.4" fill="#CE8E31" opacity="0.09"/>
  <!-- Outer ring -->
  <circle cx="600.0" cy="750.0" r="206" fill="none" stroke="#CE8E31" stroke-width="0.6" opacity="0.55"/>
  <!-- Solid parchment fill so center text reads on both halves -->
  <circle cx="600.0" cy="750.0" r="200" fill="#F4E8D0" stroke="#CE8E31" stroke-width="1.8"/>
  <!-- Inner ring with tick marks -->
  <circle cx="600.0" cy="750.0" r="186" fill="none" stroke="#CE8E31" stroke-width="0.7" opacity="0.6"/>
  <!-- Compass rose drawn ON the parchment circle -->
  <g opacity="0.7">
    <polygon points="600.0,750.0 596.7,718.5 600.0,581.0 603.3,718.5" fill="#CE8E31" opacity="0.16"/>
  <polygon points="600.0,750.0 619.9,725.4 668.4,681.6 624.6,730.1" fill="#CE8E31" opacity="0.09"/>
  <polygon points="600.0,750.0 631.5,746.7 769.0,750.0 631.5,753.3" fill="#CE8E31" opacity="0.16"/>
  <polygon points="600.0,750.0 624.6,769.9 668.4,818.4 619.9,774.6" fill="#CE8E31" opacity="0.09"/>
  <polygon points="600.0,750.0 603.3,781.5 600.0,919.0 596.7,781.5" fill="#CE8E31" opacity="0.16"/>
  <polygon points="600.0,750.0 580.1,774.6 531.6,818.4 575.4,769.9" fill="#CE8E31" opacity="0.09"/>
  <polygon points="600.0,750.0 568.5,753.3 431.0,750.0 568.5,746.7" fill="#CE8E31" opacity="0.16"/>
  <polygon points="600.0,750.0 575.4,730.1 531.6,681.6 580.1,725.4" fill="#CE8E31" opacity="0.09"/>
  </g>

  <!-- Center text — focus theme or ARMADA wordmark, auto-sized -->
  <text x="600.0" y="761.3333333333334" text-anchor="middle" font-family="Georgia, serif" font-size="34" font-weight="700" fill="#1E293B" letter-spacing="2">SPIRITUAL</text>

  <!-- ── THEME LABELS AROUND PERIMETER ── -->
    <g>
    <text x="600.0" y="280.0" text-anchor="middle" font-family="Georgia, serif" font-size="22" font-weight="700" letter-spacing="2" fill="#1E293B">VISION</text>
    <line x1="555.0" y1="292.0" x2="645.0" y2="292.0" stroke="#CE8E31" stroke-width="0.8" opacity="0.6"/>
    <text x="600.0" y="316.0" text-anchor="middle" font-family="Georgia, serif" font-size="13" fill="#475569">Get clear on where you're leading</text>
<text x="600.0" y="334.0" text-anchor="middle" font-family="Georgia, serif" font-size="13" fill="#475569">yourself, your marriage, and family.</text>
  </g>
  <g>
    <text x="967.4607967599741" y="456.95979312639525" text-anchor="middle" font-family="Georgia, serif" font-size="22" font-weight="700" letter-spacing="2" fill="#1E293B">BODY</text>
    <line x1="922.4607967599741" y1="468.95979312639525" x2="1012.4607967599741" y2="468.95979312639525" stroke="#CE8E31" stroke-width="0.8" opacity="0.6"/>
    <text x="967.4607967599741" y="492.95979312639525" text-anchor="middle" font-family="Georgia, serif" font-size="13" fill="#475569">Strengthen the body that carries</text>
<text x="967.4607967599741" y="510.95979312639525" text-anchor="middle" font-family="Georgia, serif" font-size="13" fill="#475569">your family and your mission.</text>
  </g>
  <g>
    <text x="1058.2161187254571" y="854.5848389594678" text-anchor="middle" font-family="Georgia, serif" font-size="22" font-weight="700" letter-spacing="2" fill="#CE8E31">SPIRITUAL</text>
    <line x1="1013.2161187254571" y1="866.5848389594678" x2="1103.2161187254571" y2="866.5848389594678" stroke="#CE8E31" stroke-width="0.8" opacity="0.6"/>
    <text x="1058.2161187254571" y="890.5848389594678" text-anchor="middle" font-family="Georgia, serif" font-size="13" fill="#FFFFFF">Stay consistent in God's Word</text>
<text x="1058.2161187254571" y="908.5848389594678" text-anchor="middle" font-family="Georgia, serif" font-size="13" fill="#FFFFFF">and prayer; keep your heart steady.</text>
  </g>
  <g>
    <text x="803.9253573852525" y="1173.455367914137" text-anchor="middle" font-family="Georgia, serif" font-size="22" font-weight="700" letter-spacing="2" fill="#FFFFFF">HUSBANDING</text>
    <line x1="758.9253573852525" y1="1185.455367914137" x2="848.9253573852525" y2="1185.455367914137" stroke="#CE8E31" stroke-width="0.8" opacity="0.6"/>
    <text x="803.9253573852525" y="1209.455367914137" text-anchor="middle" font-family="Georgia, serif" font-size="13" fill="#CBD5E1">Pursue, serve, and lead your wife</text>
<text x="803.9253573852525" y="1227.455367914137" text-anchor="middle" font-family="Georgia, serif" font-size="13" fill="#CBD5E1">with love and intention.</text>
  </g>
  <g>
    <text x="396.07464261474775" y="1173.455367914137" text-anchor="middle" font-family="Georgia, serif" font-size="22" font-weight="700" letter-spacing="2" fill="#FFFFFF">FATHERING</text>
    <line x1="351.07464261474775" y1="1185.455367914137" x2="441.07464261474775" y2="1185.455367914137" stroke="#CE8E31" stroke-width="0.8" opacity="0.6"/>
    <text x="396.07464261474775" y="1209.455367914137" text-anchor="middle" font-family="Georgia, serif" font-size="13" fill="#CBD5E1">Be present, patient, and purposeful</text>
<text x="396.07464261474775" y="1227.455367914137" text-anchor="middle" font-family="Georgia, serif" font-size="13" fill="#CBD5E1">in how you raise your children.</text>
  </g>
  <g>
    <text x="141.78388127454286" y="854.5848389594676" text-anchor="middle" font-family="Georgia, serif" font-size="22" font-weight="700" letter-spacing="2" fill="#FFFFFF">FINANCE</text>
    <line x1="96.78388127454286" y1="866.5848389594676" x2="186.78388127454286" y2="866.5848389594676" stroke="#CE8E31" stroke-width="0.8" opacity="0.6"/>
    <text x="141.78388127454286" y="890.5848389594676" text-anchor="middle" font-family="Georgia, serif" font-size="13" fill="#CBD5E1">Manage money wisely and lead your</text>
<text x="141.78388127454286" y="908.5848389594676" text-anchor="middle" font-family="Georgia, serif" font-size="13" fill="#CBD5E1">home with financial order.</text>
  </g>
  <g>
    <text x="232.53920324002593" y="456.9597931263953" text-anchor="middle" font-family="Georgia, serif" font-size="22" font-weight="700" letter-spacing="2" fill="#1E293B">SABBATH</text>
    <line x1="187.53920324002593" y1="468.9597931263953" x2="277.5392032400259" y2="468.9597931263953" stroke="#CE8E31" stroke-width="0.8" opacity="0.6"/>
    <text x="232.53920324002593" y="492.9597931263953" text-anchor="middle" font-family="Georgia, serif" font-size="13" fill="#475569">Slow down to rest, reflect,</text>
<text x="232.53920324002593" y="510.9597931263953" text-anchor="middle" font-family="Georgia, serif" font-size="13" fill="#475569">and recharge for the week ahead.</text>
  </g>

  <!-- ── BOTTOM ORNAMENT ── -->
  
  <g stroke="#CE8E31" stroke-width="1.6" fill="none" transform="translate(578.0,1418)">
    <!-- Stylized anchor -->
    <circle cx="22" cy="6" r="4"/>
    <line x1="22" y1="10" x2="22" y2="38"/>
    <path d="M 6,30 Q 22,46 38,30" stroke-width="1.4"/>
    <line x1="14" y1="14" x2="30" y2="14" stroke-width="1.2"/>
  </g>

  <!-- Caption -->
  <text x="600.0" y="1478" text-anchor="middle" font-family="Georgia, serif" font-size="14" fill="#CE8E31" letter-spacing="3" font-style="italic">THE FAMILY CAPTAIN · AI BOOT CAMP</text>
</svg>
