<svg xmlns="http://www.w3.org/2000/svg" viewBox="0 0 100 100">
  <rect width="100" height="100" fill="#000000"/>
  <!-- Upper arm / bicep peak -->
  <path d="M25 72 Q20 55 28 42 Q34 32 44 28 Q56 24 64 30 Q72 36 70 48 Q68 58 58 64 Q50 68 42 66 Q35 74 30 78 Q26 80 25 72Z" fill="#D4AF37"/>
  <!-- Bicep highlight/peak -->
  <ellipse cx="48" cy="40" rx="10" ry="8" fill="#F4D470" transform="rotate(-15 48 40)"/>
  <!-- Forearm -->
  <path d="M58 64 Q68 60 76 54 Q82 48 80 42 Q78 36 72 36 Q66 36 64 42 Q62 50 58 64Z" fill="#D4AF37"/>
  <!-- Fist -->
  <rect x="70" y="34" width="18" height="14" rx="5" fill="#D4AF37"/>
  <!-- Knuckles -->
  <rect x="72" y="34" width="3" height="5" rx="2" fill="#B8941F"/>
  <rect x="77" y="34" width="3" height="5" rx="2" fill="#B8941F"/>
  <rect x="82" y="34" width="3" height="5" rx="2" fill="#B8941F"/>
</svg>
