<svg xmlns="http://www.w3.org/2000/svg" viewBox="0 0 100 100">
  <rect width="100" height="100" fill="#000000"/>
  <rect x="12" y="20" width="76" height="68" fill="#D4AF37" rx="6"/>
  <rect x="12" y="20" width="76" height="22" fill="#8B7220" rx="6"/>
  <rect x="12" y="32" width="76" height="10" fill="#8B7220"/>
  <rect x="30" y="13" width="8" height="16" fill="#D4AF37" rx="4"/>
  <rect x="62" y="13" width="8" height="16" fill="#D4AF37" rx="4"/>
  <line x1="35" y1="42" x2="35" y2="82" stroke="#8B7220" stroke-width="1.5"/>
  <line x1="51" y1="42" x2="51" y2="82" stroke="#8B7220" stroke-width="1.5"/>
  <line x1="67" y1="42" x2="67" y2="82" stroke="#8B7220" stroke-width="1.5"/>
  <line x1="12" y1="54" x2="88" y2="54" stroke="#8B7220" stroke-width="1.5"/>
  <line x1="12" y1="66" x2="88" y2="66" stroke="#8B7220" stroke-width="1.5"/>
  <circle cx="43" cy="48" r="3" fill="#000"/>
  <circle cx="59" cy="48" r="3" fill="#000"/>
  <circle cx="75" cy="48" r="3" fill="#000"/>
  <circle cx="27" cy="60" r="3" fill="#000"/>
  <circle cx="43" cy="60" r="3" fill="#000"/>
  <circle cx="59" cy="72" r="3" fill="#000"/>
</svg>
