<svg xmlns="http://www.w3.org/2000/svg" viewBox="0 0 100 100">
  <rect width="100" height="100" fill="#000000"/>
  <circle cx="50" cy="50" r="26" fill="#D4AF37"/>
  <rect x="46" y="18" width="8" height="12" fill="#D4AF37" rx="2" transform="rotate(0 50 50)"/>
  <rect x="46" y="18" width="8" height="12" fill="#D4AF37" rx="2" transform="rotate(45 50 50)"/>
  <rect x="46" y="18" width="8" height="12" fill="#D4AF37" rx="2" transform="rotate(90 50 50)"/>
  <rect x="46" y="18" width="8" height="12" fill="#D4AF37" rx="2" transform="rotate(135 50 50)"/>
  <rect x="46" y="18" width="8" height="12" fill="#D4AF37" rx="2" transform="rotate(180 50 50)"/>
  <rect x="46" y="18" width="8" height="12" fill="#D4AF37" rx="2" transform="rotate(225 50 50)"/>
  <rect x="46" y="18" width="8" height="12" fill="#D4AF37" rx="2" transform="rotate(270 50 50)"/>
  <rect x="46" y="18" width="8" height="12" fill="#D4AF37" rx="2" transform="rotate(315 50 50)"/>
  <circle cx="50" cy="50" r="12" fill="#000"/>
  <circle cx="50" cy="50" r="5" fill="#D4AF37"/>
</svg>
